<?xml version="1.0" standalone="no"?>
<!DOCTYPE svg PUBLIC "-//W3C//DTD SVG 20010904//EN"
 "http://www.w3.org/TR/2001/REC-SVG-20010904/DTD/svg10.dtd">
<svg version="1.0" xmlns="http://www.w3.org/2000/svg"
 width="500.000000pt" height="500.000000pt" viewBox="0 0 500.000000 500.000000"
 preserveAspectRatio="xMidYMid meet">

<g transform="translate(0.000000,500.000000) scale(0.100000,-0.100000)"
fill="#428c0d" stroke="none">
<path d="M1510 4854 c-201 -29 -381 -57 -400 -62 -43 -10 -58 -44 -44 -99 8
-34 13 -38 44 -41 161 -11 297 -44 328 -78 l22 -25 0 -439 0 -438 -34 1 c-42
1 -80 -23 -103 -66 -16 -28 -18 -60 -18 -247 1 -324 -37 -302 503 -298 448 3
440 2 463 78 10 33 9 47 -6 85 -31 81 -21 79 -435 85 l-365 5 46 22 c102 50
267 73 527 73 193 0 232 19 248 118 13 83 -31 147 -114 166 l-49 11 46 70 c25
38 88 113 138 166 215 223 455 330 779 346 391 19 714 -128 833 -380 29 -63
61 -175 61 -215 0 -28 35 -43 81 -35 19 3 36 6 38 8 5 6 -27 649 -34 666 -8
21 -36 33 -146 64 -125 36 -318 71 -487 89 -572 64 -1084 -76 -1404 -383 l-48
-45 3 413 c2 398 1 413 -17 427 -28 20 -49 18 -456 -42z"/>
<path d="M1383 2940 c-107 -48 -113 -205 -9 -254 32 -15 75 -17 428 -14 375 3
394 4 420 23 40 30 58 68 58 122 0 60 -25 104 -73 126 -31 15 -80 17 -409 17
-346 0 -376 -2 -415 -20z"/>
<path d="M1380 2572 c-9 -4 -25 -14 -36 -22 -73 -53 -51 -187 36 -217 24 -8
138 -12 373 -12 185 -1 337 -5 337 -9 0 -24 -141 -67 -282 -87 -56 -8 -172
-19 -256 -25 -84 -5 -163 -15 -175 -21 -66 -34 -88 -85 -65 -154 15 -47 61
-75 122 -75 l38 0 -5 -372 c-5 -389 -16 -508 -59 -693 -62 -268 -189 -470
-370 -590 -32 -21 -58 -44 -58 -53 0 -24 52 -111 70 -117 36 -11 206 74 332
167 90 66 224 209 292 311 65 97 126 223 162 334 31 93 74 277 74 316 0 15 3
27 8 27 4 0 41 -30 82 -66 215 -189 472 -318 740 -373 189 -39 457 -51 661
-30 215 22 481 88 631 156 66 31 78 39 78 60 0 41 -31 133 -44 133 -7 0 -73
-20 -147 -44 -323 -107 -640 -124 -896 -50 -347 100 -626 352 -810 732 -36 74
-63 135 -61 136 1 1 21 7 43 12 28 6 46 19 62 43 22 33 23 41 23 273 l0 238
-34 38 -34 37 -409 2 c-224 1 -415 -1 -423 -5z"/>
</g>
</svg>
